<svg width="506" height="188" viewBox="0 0 506 188" fill="none" xmlns="http://www.w3.org/2000/svg">
<path fill-rule="evenodd" clip-rule="evenodd" d="M0 94C0 95.7851 3.2364 97.2325 7.22857 97.2325L498.771 97.2325C502.764 97.2325 506 95.7851 506 94C506 92.2148 502.764 90.7674 498.771 90.7674L7.22857 90.7674C3.2364 90.7674 0 92.2148 0 94ZM72.2857 116.628C72.2857 118.413 75.5219 119.86 79.5143 119.86L498.771 119.86C502.764 119.86 506 118.413 506 116.628C506 114.843 502.764 113.395 498.771 113.395L79.5143 113.395C75.5219 113.395 72.2857 114.843 72.2857 116.628ZM144.571 139.256C144.571 141.041 147.808 142.488 151.8 142.488L498.771 142.488C502.764 142.488 506 141.041 506 139.256C506 137.471 502.764 136.023 498.771 136.023L151.8 136.023C147.808 136.023 144.571 137.471 144.571 139.256ZM216.857 161.884C216.857 163.669 220.093 165.116 224.086 165.116L498.771 165.116C502.764 165.116 506 163.669 506 161.884C506 160.099 502.764 158.651 498.771 158.651L224.086 158.651C220.093 158.651 216.857 160.099 216.857 161.884ZM289.143 184.512C289.143 186.297 292.379 187.744 296.371 187.744H498.771C502.764 187.744 506 186.297 506 184.512C506 182.726 502.764 181.279 498.771 181.279H296.371C292.379 181.279 289.143 182.726 289.143 184.512ZM296.371 0.255737C292.379 0.255737 289.143 1.70314 289.143 3.48831C289.143 5.27348 292.379 6.72086 296.371 6.72086H498.771C502.764 6.72086 506 5.27348 506 3.48831C506 1.70314 502.764 0.255737 498.771 0.255737H296.371ZM224.086 22.8837C220.093 22.8837 216.857 24.331 216.857 26.1162C216.857 27.9014 220.093 29.3488 224.086 29.3488L498.771 29.3488C502.764 29.3488 506 27.9014 506 26.1162C506 24.331 502.764 22.8837 498.771 22.8837L224.086 22.8837ZM151.8 45.5116C147.808 45.5116 144.571 46.959 144.571 48.7441C144.571 50.5293 147.808 51.9767 151.8 51.9767L498.771 51.9767C502.764 51.9767 506 50.5293 506 48.7441C506 46.959 502.764 45.5116 498.771 45.5116L151.8 45.5116ZM79.5143 68.1395C75.5219 68.1395 72.2857 69.5869 72.2857 71.372C72.2857 73.1572 75.5219 74.6046 79.5143 74.6046L498.771 74.6046C502.764 74.6046 506 73.1572 506 71.372C506 69.5869 502.764 68.1395 498.771 68.1395L79.5143 68.1395Z" fill="url(#paint0_radial_2311_11301)"/>
<defs>
<radialGradient id="paint0_radial_2311_11301" cx="0" cy="0" r="1" gradientUnits="userSpaceOnUse" gradientTransform="translate(253 94) scale(194.5 169.921)">
<stop stop-color="#C625E9" stop-opacity="0.46"/>
<stop offset="1" stop-color="#0500FB" stop-opacity="0"/>
</radialGradient>
</defs>
</svg>
