<svg width="596" height="464" viewBox="0 0 596 464" fill="none" xmlns="http://www.w3.org/2000/svg">
<circle cx="78.5" cy="346.5" r="74" stroke="#686873" stroke-dasharray="2 2"/>
<g filter="url(#filter0_b_2311_11045)">
<rect x="111" y="49" width="350" height="380" rx="24" transform="rotate(6 111 49)" fill="#040416" fill-opacity="0.24"/>
<rect x="111.89" y="50.0991" width="348" height="378" rx="23" transform="rotate(6 111.89 50.0991)" stroke="url(#paint0_linear_2311_11045)" stroke-width="2"/>
</g>
<circle cx="274" cy="61" r="53.5" stroke="#686873" stroke-dasharray="2 2"/>
<g filter="url(#filter1_b_2311_11045)">
<rect x="91" y="64" width="360" height="390" rx="24" fill="#040416" fill-opacity="0.64"/>
<rect x="92" y="65" width="358" height="388" rx="23" stroke="white" stroke-opacity="0.4" stroke-width="2"/>
</g>
<rect x="115" y="357" width="312" height="73" rx="36.5" fill="#363645"/>
<path d="M247.635 401.238C246.161 401.238 244.924 401.024 243.925 400.596C242.942 400.152 242.188 399.581 241.665 398.883C241.158 398.17 240.888 397.424 240.856 396.647C240.856 396.505 240.904 396.386 240.999 396.29C241.094 396.195 241.213 396.148 241.356 396.148H243.473C243.679 396.148 243.83 396.195 243.925 396.29C244.036 396.37 244.131 396.473 244.21 396.6C244.305 396.901 244.488 397.202 244.757 397.504C245.027 397.789 245.391 398.027 245.851 398.217C246.327 398.407 246.922 398.503 247.635 398.503C248.777 398.503 249.625 398.312 250.18 397.932C250.751 397.551 251.037 397.036 251.037 396.386C251.037 395.926 250.886 395.561 250.585 395.291C250.283 395.006 249.816 394.752 249.181 394.53C248.563 394.292 247.738 394.047 246.708 393.793C245.518 393.508 244.519 393.167 243.711 392.77C242.918 392.358 242.315 391.843 241.903 391.224C241.506 390.606 241.308 389.821 241.308 388.869C241.308 387.95 241.554 387.133 242.046 386.419C242.553 385.706 243.267 385.143 244.186 384.731C245.122 384.318 246.232 384.112 247.516 384.112C248.547 384.112 249.459 384.255 250.252 384.54C251.045 384.81 251.703 385.175 252.226 385.634C252.749 386.078 253.146 386.562 253.415 387.085C253.701 387.593 253.851 388.092 253.867 388.584C253.867 388.711 253.819 388.83 253.724 388.941C253.645 389.036 253.526 389.083 253.368 389.083H251.155C251.029 389.083 250.902 389.052 250.775 388.988C250.648 388.925 250.545 388.806 250.466 388.631C250.371 388.14 250.061 387.72 249.538 387.371C249.015 387.022 248.341 386.847 247.516 386.847C246.66 386.847 245.97 387.006 245.447 387.323C244.924 387.64 244.662 388.132 244.662 388.798C244.662 389.242 244.789 389.615 245.043 389.916C245.312 390.201 245.732 390.455 246.303 390.677C246.89 390.899 247.659 391.137 248.61 391.391C249.958 391.692 251.06 392.041 251.917 392.437C252.773 392.834 253.399 393.341 253.796 393.959C254.192 394.562 254.39 395.331 254.39 396.267C254.39 397.313 254.105 398.209 253.534 398.954C252.979 399.684 252.194 400.247 251.179 400.643C250.164 401.04 248.983 401.238 247.635 401.238ZM260.208 401C259.986 401 259.82 400.945 259.709 400.834C259.598 400.723 259.503 400.58 259.423 400.405L256.022 389.369C256.006 389.29 255.998 389.218 255.998 389.155C255.998 389.012 256.046 388.893 256.141 388.798C256.252 388.687 256.371 388.631 256.498 388.631H258.258C258.448 388.631 258.599 388.687 258.71 388.798C258.821 388.893 258.884 388.988 258.9 389.083L261.231 396.956L263.705 389.155C263.737 389.044 263.808 388.933 263.919 388.822C264.03 388.695 264.196 388.631 264.418 388.631H265.608C265.83 388.631 265.996 388.695 266.107 388.822C266.218 388.933 266.29 389.044 266.321 389.155L268.795 396.956L271.126 389.083C271.142 388.988 271.197 388.893 271.293 388.798C271.404 388.687 271.554 388.631 271.744 388.631H273.505C273.647 388.631 273.766 388.687 273.861 388.798C273.972 388.893 274.028 389.012 274.028 389.155C274.028 389.218 274.012 389.29 273.98 389.369L270.579 400.405C270.531 400.58 270.444 400.723 270.317 400.834C270.206 400.945 270.04 401 269.818 401H268.272C268.05 401 267.875 400.945 267.748 400.834C267.622 400.723 267.534 400.58 267.487 400.405L265.013 392.889L262.539 400.405C262.476 400.58 262.381 400.723 262.254 400.834C262.143 400.945 261.969 401 261.731 401H260.208ZM279.563 401.238C278.738 401.238 277.993 401.079 277.327 400.762C276.661 400.429 276.129 399.993 275.733 399.454C275.352 398.899 275.162 398.281 275.162 397.599C275.162 396.489 275.606 395.609 276.494 394.958C277.398 394.292 278.587 393.848 280.062 393.626L283.321 393.151V392.651C283.321 391.985 283.154 391.47 282.821 391.105C282.488 390.74 281.917 390.558 281.109 390.558C280.538 390.558 280.07 390.677 279.705 390.915C279.356 391.137 279.095 391.438 278.92 391.819C278.793 392.025 278.611 392.128 278.373 392.128H276.494C276.32 392.128 276.185 392.08 276.09 391.985C276.011 391.89 275.971 391.763 275.971 391.605C275.987 391.351 276.09 391.042 276.28 390.677C276.47 390.312 276.772 389.963 277.184 389.63C277.596 389.282 278.127 388.988 278.778 388.75C279.428 388.512 280.213 388.394 281.132 388.394C282.131 388.394 282.972 388.52 283.654 388.774C284.351 389.012 284.906 389.337 285.319 389.749C285.731 390.162 286.032 390.645 286.223 391.2C286.413 391.755 286.508 392.342 286.508 392.96V400.429C286.508 400.588 286.452 400.723 286.341 400.834C286.23 400.945 286.096 401 285.937 401H284.01C283.836 401 283.693 400.945 283.582 400.834C283.487 400.723 283.44 400.588 283.44 400.429V399.502C283.233 399.803 282.956 400.088 282.607 400.358C282.258 400.611 281.83 400.826 281.323 401C280.831 401.159 280.244 401.238 279.563 401.238ZM280.371 398.978C280.926 398.978 281.426 398.859 281.87 398.621C282.33 398.384 282.686 398.019 282.94 397.527C283.21 397.02 283.344 396.386 283.344 395.624V395.125L280.966 395.506C280.03 395.648 279.333 395.878 278.873 396.195C278.413 396.512 278.183 396.901 278.183 397.361C278.183 397.71 278.286 398.011 278.492 398.265C278.714 398.503 278.992 398.685 279.325 398.812C279.658 398.923 280.007 398.978 280.371 398.978ZM290.154 405.519C289.995 405.519 289.861 405.464 289.75 405.353C289.639 405.242 289.583 405.107 289.583 404.948V389.202C289.583 389.044 289.639 388.909 289.75 388.798C289.861 388.687 289.995 388.631 290.154 388.631H292.033C292.208 388.631 292.342 388.687 292.437 388.798C292.548 388.909 292.604 389.044 292.604 389.202V390.154C292.985 389.646 293.484 389.226 294.102 388.893C294.721 388.56 295.49 388.394 296.41 388.394C297.25 388.394 297.98 388.528 298.598 388.798C299.216 389.068 299.732 389.456 300.144 389.963C300.556 390.455 300.873 391.042 301.095 391.724C301.317 392.405 301.444 393.159 301.476 393.983C301.492 394.253 301.5 394.53 301.5 394.816C301.5 395.101 301.492 395.387 301.476 395.672C301.46 396.465 301.341 397.202 301.119 397.884C300.897 398.55 300.572 399.137 300.144 399.644C299.732 400.136 299.216 400.524 298.598 400.81C297.98 401.095 297.25 401.238 296.41 401.238C295.553 401.238 294.824 401.087 294.221 400.786C293.619 400.469 293.127 400.056 292.747 399.549V404.948C292.747 405.107 292.691 405.242 292.58 405.353C292.485 405.464 292.35 405.519 292.176 405.519H290.154ZM295.53 398.693C296.211 398.693 296.743 398.55 297.123 398.265C297.504 397.963 297.773 397.575 297.932 397.099C298.106 396.623 298.209 396.1 298.241 395.529C298.273 395.054 298.273 394.578 298.241 394.102C298.209 393.531 298.106 393.008 297.932 392.532C297.773 392.057 297.504 391.676 297.123 391.391C296.743 391.089 296.211 390.939 295.53 390.939C294.879 390.939 294.348 391.089 293.936 391.391C293.54 391.692 293.246 392.08 293.056 392.556C292.881 393.016 292.778 393.492 292.747 393.983C292.731 394.269 292.723 394.57 292.723 394.887C292.723 395.204 292.731 395.513 292.747 395.815C292.763 396.29 292.874 396.75 293.08 397.194C293.286 397.622 293.587 397.979 293.984 398.265C294.38 398.55 294.895 398.693 295.53 398.693Z" fill="#EDB400"/>
<path d="M124.984 127.32C123.128 127.32 121.571 127.043 120.312 126.488C119.053 125.912 118.083 125.176 117.4 124.28C116.739 123.363 116.387 122.392 116.344 121.368C116.344 121.197 116.408 121.048 116.536 120.92C116.685 120.771 116.856 120.696 117.048 120.696H118.68C118.936 120.696 119.128 120.76 119.256 120.888C119.384 121.016 119.469 121.165 119.512 121.336C119.619 121.848 119.875 122.36 120.28 122.872C120.707 123.363 121.293 123.779 122.04 124.12C122.808 124.44 123.789 124.6 124.984 124.6C126.819 124.6 128.163 124.28 129.016 123.64C129.891 122.979 130.328 122.104 130.328 121.016C130.328 120.269 130.093 119.672 129.624 119.224C129.176 118.755 128.483 118.339 127.544 117.976C126.605 117.613 125.389 117.219 123.896 116.792C122.339 116.344 121.048 115.853 120.024 115.32C119 114.787 118.232 114.125 117.72 113.336C117.229 112.547 116.984 111.544 116.984 110.328C116.984 109.176 117.293 108.152 117.912 107.256C118.531 106.339 119.416 105.613 120.568 105.08C121.741 104.547 123.16 104.28 124.824 104.28C126.147 104.28 127.299 104.461 128.28 104.824C129.283 105.165 130.115 105.635 130.776 106.232C131.437 106.808 131.939 107.437 132.28 108.12C132.621 108.781 132.803 109.432 132.824 110.072C132.824 110.221 132.771 110.371 132.664 110.52C132.557 110.648 132.387 110.712 132.152 110.712H130.456C130.307 110.712 130.147 110.669 129.976 110.584C129.827 110.499 129.709 110.339 129.624 110.104C129.496 109.229 129.005 108.493 128.152 107.896C127.299 107.299 126.189 107 124.824 107C123.437 107 122.307 107.267 121.432 107.8C120.579 108.333 120.152 109.165 120.152 110.296C120.152 111.021 120.355 111.629 120.76 112.12C121.165 112.589 121.805 113.005 122.68 113.368C123.555 113.731 124.696 114.115 126.104 114.52C127.811 114.989 129.208 115.491 130.296 116.024C131.384 116.536 132.184 117.187 132.696 117.976C133.229 118.744 133.496 119.736 133.496 120.952C133.496 122.296 133.144 123.448 132.44 124.408C131.736 125.347 130.744 126.072 129.464 126.584C128.205 127.075 126.712 127.32 124.984 127.32ZM141.69 127C141.413 127 141.2 126.936 141.05 126.808C140.901 126.659 140.773 126.456 140.666 126.2L136.122 111.352C136.08 111.245 136.058 111.139 136.058 111.032C136.058 110.84 136.122 110.68 136.25 110.552C136.4 110.424 136.56 110.36 136.73 110.36H138.138C138.373 110.36 138.554 110.424 138.682 110.552C138.81 110.68 138.896 110.797 138.938 110.904L142.49 122.968L146.298 111.032C146.341 110.883 146.426 110.733 146.554 110.584C146.704 110.435 146.917 110.36 147.194 110.36H148.282C148.56 110.36 148.773 110.435 148.922 110.584C149.072 110.733 149.157 110.883 149.178 111.032L152.986 122.968L156.538 110.904C156.56 110.797 156.634 110.68 156.762 110.552C156.89 110.424 157.072 110.36 157.306 110.36H158.714C158.906 110.36 159.066 110.424 159.194 110.552C159.322 110.68 159.386 110.84 159.386 111.032C159.386 111.139 159.365 111.245 159.322 111.352L154.778 126.2C154.714 126.456 154.597 126.659 154.426 126.808C154.277 126.936 154.053 127 153.754 127H152.506C152.229 127 151.994 126.936 151.802 126.808C151.632 126.659 151.514 126.456 151.45 126.2L147.738 114.744L144.026 126.2C143.941 126.456 143.813 126.659 143.642 126.808C143.472 126.936 143.237 127 142.938 127H141.69ZM167.102 127.32C166.035 127.32 165.064 127.107 164.19 126.68C163.315 126.253 162.611 125.677 162.078 124.952C161.544 124.227 161.278 123.405 161.278 122.488C161.278 121.016 161.875 119.843 163.07 118.968C164.264 118.093 165.822 117.517 167.742 117.24L172.51 116.568V115.64C172.51 114.616 172.211 113.816 171.614 113.24C171.038 112.664 170.088 112.376 168.766 112.376C167.806 112.376 167.027 112.568 166.43 112.952C165.854 113.336 165.448 113.827 165.214 114.424C165.086 114.744 164.862 114.904 164.542 114.904H163.102C162.867 114.904 162.686 114.84 162.558 114.712C162.451 114.563 162.398 114.392 162.398 114.2C162.398 113.88 162.515 113.485 162.75 113.016C163.006 112.547 163.39 112.088 163.902 111.64C164.414 111.192 165.064 110.819 165.854 110.52C166.664 110.2 167.646 110.04 168.798 110.04C170.078 110.04 171.155 110.211 172.03 110.552C172.904 110.872 173.587 111.309 174.078 111.864C174.59 112.419 174.952 113.048 175.166 113.752C175.4 114.456 175.518 115.171 175.518 115.896V126.264C175.518 126.477 175.443 126.659 175.294 126.808C175.166 126.936 174.995 127 174.782 127H173.31C173.075 127 172.894 126.936 172.766 126.808C172.638 126.659 172.574 126.477 172.574 126.264V124.888C172.296 125.272 171.923 125.656 171.454 126.04C170.984 126.403 170.398 126.712 169.694 126.968C168.99 127.203 168.126 127.32 167.102 127.32ZM167.774 124.92C168.648 124.92 169.448 124.739 170.174 124.376C170.899 123.992 171.464 123.405 171.87 122.616C172.296 121.827 172.51 120.835 172.51 119.64V118.744L168.798 119.288C167.283 119.501 166.142 119.864 165.374 120.376C164.606 120.867 164.222 121.496 164.222 122.264C164.222 122.861 164.392 123.363 164.734 123.768C165.096 124.152 165.544 124.44 166.078 124.632C166.632 124.824 167.198 124.92 167.774 124.92ZM180.886 133.08C180.673 133.08 180.491 133.005 180.342 132.856C180.214 132.728 180.15 132.557 180.15 132.344V111.096C180.15 110.883 180.214 110.712 180.342 110.584C180.491 110.435 180.673 110.36 180.886 110.36H182.358C182.571 110.36 182.742 110.435 182.87 110.584C183.019 110.712 183.094 110.883 183.094 111.096V112.504C183.606 111.8 184.289 111.213 185.142 110.744C185.995 110.275 187.062 110.04 188.342 110.04C189.537 110.04 190.55 110.243 191.382 110.648C192.235 111.053 192.929 111.608 193.462 112.312C194.017 113.016 194.433 113.816 194.71 114.712C194.987 115.608 195.137 116.568 195.158 117.592C195.179 117.933 195.19 118.296 195.19 118.68C195.19 119.064 195.179 119.427 195.158 119.768C195.137 120.771 194.987 121.731 194.71 122.648C194.433 123.544 194.017 124.344 193.462 125.048C192.929 125.731 192.235 126.285 191.382 126.712C190.55 127.117 189.537 127.32 188.342 127.32C187.105 127.32 186.059 127.096 185.206 126.648C184.374 126.179 183.691 125.603 183.158 124.92V132.344C183.158 132.557 183.094 132.728 182.966 132.856C182.838 133.005 182.657 133.08 182.422 133.08H180.886ZM187.67 124.728C188.779 124.728 189.643 124.493 190.262 124.024C190.902 123.533 191.361 122.904 191.638 122.136C191.915 121.347 192.075 120.504 192.118 119.608C192.139 118.989 192.139 118.371 192.118 117.752C192.075 116.856 191.915 116.024 191.638 115.256C191.361 114.467 190.902 113.837 190.262 113.368C189.643 112.877 188.779 112.632 187.67 112.632C186.625 112.632 185.771 112.877 185.11 113.368C184.47 113.859 183.99 114.488 183.67 115.256C183.371 116.003 183.201 116.771 183.158 117.56C183.137 117.901 183.126 118.307 183.126 118.776C183.126 119.245 183.137 119.661 183.158 120.024C183.179 120.771 183.35 121.507 183.67 122.232C184.011 122.957 184.513 123.555 185.174 124.024C185.835 124.493 186.667 124.728 187.67 124.728Z" fill="white"/>
<rect x="209" y="104" width="83" height="28" rx="4" fill="white" fill-opacity="0.24"/>
<path d="M279.333 116.667L276 120L272.667 116.667" stroke="white" stroke-width="1.5" stroke-linecap="round" stroke-linejoin="round"/>
<path d="M221.872 123.14C221.004 123.14 220.267 122.991 219.66 122.692C219.063 122.384 218.605 121.95 218.288 121.39C217.971 120.821 217.793 120.14 217.756 119.346C217.747 118.964 217.742 118.553 217.742 118.114C217.742 117.676 217.747 117.256 217.756 116.854C217.793 116.07 217.971 115.394 218.288 114.824C218.615 114.255 219.077 113.821 219.674 113.522C220.281 113.214 221.013 113.06 221.872 113.06C222.507 113.06 223.076 113.144 223.58 113.312C224.084 113.48 224.513 113.714 224.868 114.012C225.223 114.302 225.498 114.642 225.694 115.034C225.89 115.426 225.993 115.851 226.002 116.308C226.011 116.392 225.983 116.462 225.918 116.518C225.862 116.574 225.792 116.602 225.708 116.602H224.378C224.275 116.602 224.191 116.579 224.126 116.532C224.061 116.476 224.014 116.388 223.986 116.266C223.837 115.65 223.58 115.23 223.216 115.006C222.852 114.782 222.399 114.67 221.858 114.67C221.233 114.67 220.733 114.848 220.36 115.202C219.987 115.548 219.786 116.122 219.758 116.924C219.73 117.69 219.73 118.474 219.758 119.276C219.786 120.079 219.987 120.658 220.36 121.012C220.733 121.358 221.233 121.53 221.858 121.53C222.399 121.53 222.852 121.418 223.216 121.194C223.58 120.961 223.837 120.541 223.986 119.934C224.014 119.804 224.061 119.715 224.126 119.668C224.191 119.622 224.275 119.598 224.378 119.598H225.708C225.792 119.598 225.862 119.626 225.918 119.682C225.983 119.738 226.011 119.808 226.002 119.892C225.993 120.35 225.89 120.774 225.694 121.166C225.498 121.558 225.223 121.904 224.868 122.202C224.513 122.492 224.084 122.72 223.58 122.888C223.076 123.056 222.507 123.14 221.872 123.14ZM227.83 123C227.737 123 227.658 122.968 227.592 122.902C227.527 122.837 227.494 122.758 227.494 122.664V116.07C227.494 115.968 227.527 115.884 227.592 115.818C227.658 115.753 227.737 115.72 227.83 115.72H228.964C229.058 115.72 229.137 115.753 229.202 115.818C229.277 115.884 229.314 115.968 229.314 116.07V116.644C229.529 116.346 229.804 116.117 230.14 115.958C230.486 115.8 230.882 115.72 231.33 115.72H231.904C232.007 115.72 232.086 115.753 232.142 115.818C232.208 115.884 232.24 115.963 232.24 116.056V117.064C232.24 117.158 232.208 117.237 232.142 117.302C232.086 117.368 232.007 117.4 231.904 117.4H230.812C230.364 117.4 230.014 117.526 229.762 117.778C229.52 118.03 229.398 118.376 229.398 118.814V122.664C229.398 122.758 229.366 122.837 229.3 122.902C229.235 122.968 229.151 123 229.048 123H227.83ZM234.648 125.66C234.574 125.66 234.508 125.632 234.452 125.576C234.396 125.52 234.368 125.455 234.368 125.38C234.368 125.343 234.368 125.306 234.368 125.268C234.378 125.24 234.396 125.203 234.424 125.156L235.516 122.566L232.828 116.224C232.791 116.131 232.772 116.066 232.772 116.028C232.782 115.944 232.814 115.874 232.87 115.818C232.926 115.753 232.996 115.72 233.08 115.72H234.214C234.326 115.72 234.41 115.748 234.466 115.804C234.522 115.86 234.564 115.921 234.592 115.986L236.454 120.564L238.372 115.986C238.4 115.912 238.442 115.851 238.498 115.804C238.554 115.748 238.638 115.72 238.75 115.72H239.87C239.945 115.72 240.01 115.748 240.066 115.804C240.132 115.86 240.164 115.926 240.164 116C240.164 116.056 240.146 116.131 240.108 116.224L236.146 125.394C236.109 125.469 236.062 125.53 236.006 125.576C235.95 125.632 235.866 125.66 235.754 125.66H234.648ZM241.721 125.66C241.628 125.66 241.549 125.628 241.483 125.562C241.418 125.497 241.385 125.418 241.385 125.324V116.056C241.385 115.963 241.418 115.884 241.483 115.818C241.549 115.753 241.628 115.72 241.721 115.72H242.827C242.93 115.72 243.009 115.753 243.065 115.818C243.131 115.884 243.163 115.963 243.163 116.056V116.616C243.387 116.318 243.681 116.07 244.045 115.874C244.409 115.678 244.862 115.58 245.403 115.58C245.898 115.58 246.327 115.66 246.691 115.818C247.055 115.977 247.359 116.206 247.601 116.504C247.844 116.794 248.031 117.139 248.161 117.54C248.292 117.942 248.367 118.385 248.385 118.87C248.395 119.029 248.399 119.192 248.399 119.36C248.399 119.528 248.395 119.696 248.385 119.864C248.376 120.331 248.306 120.765 248.175 121.166C248.045 121.558 247.853 121.904 247.601 122.202C247.359 122.492 247.055 122.72 246.691 122.888C246.327 123.056 245.898 123.14 245.403 123.14C244.899 123.14 244.47 123.052 244.115 122.874C243.761 122.688 243.471 122.445 243.247 122.146V125.324C243.247 125.418 243.215 125.497 243.149 125.562C243.093 125.628 243.014 125.66 242.911 125.66H241.721ZM244.885 121.642C245.287 121.642 245.599 121.558 245.823 121.39C246.047 121.213 246.206 120.984 246.299 120.704C246.402 120.424 246.463 120.116 246.481 119.78C246.5 119.5 246.5 119.22 246.481 118.94C246.463 118.604 246.402 118.296 246.299 118.016C246.206 117.736 246.047 117.512 245.823 117.344C245.599 117.167 245.287 117.078 244.885 117.078C244.503 117.078 244.19 117.167 243.947 117.344C243.714 117.522 243.541 117.75 243.429 118.03C243.327 118.301 243.266 118.581 243.247 118.87C243.238 119.038 243.233 119.216 243.233 119.402C243.233 119.589 243.238 119.771 243.247 119.948C243.257 120.228 243.322 120.499 243.443 120.76C243.565 121.012 243.742 121.222 243.975 121.39C244.209 121.558 244.512 121.642 244.885 121.642ZM253.206 123C252.646 123 252.175 122.902 251.792 122.706C251.41 122.51 251.125 122.221 250.938 121.838C250.752 121.446 250.658 120.961 250.658 120.382V117.204H249.552C249.459 117.204 249.38 117.172 249.314 117.106C249.249 117.041 249.216 116.962 249.216 116.868V116.056C249.216 115.963 249.249 115.884 249.314 115.818C249.38 115.753 249.459 115.72 249.552 115.72H250.658V113.396C250.658 113.303 250.686 113.224 250.742 113.158C250.808 113.093 250.892 113.06 250.994 113.06H252.128C252.222 113.06 252.301 113.093 252.366 113.158C252.432 113.224 252.464 113.303 252.464 113.396V115.72H254.214C254.308 115.72 254.387 115.753 254.452 115.818C254.518 115.884 254.55 115.963 254.55 116.056V116.868C254.55 116.962 254.518 117.041 254.452 117.106C254.387 117.172 254.308 117.204 254.214 117.204H252.464V120.242C252.464 120.625 252.53 120.924 252.66 121.138C252.8 121.353 253.038 121.46 253.374 121.46H254.34C254.434 121.46 254.513 121.493 254.578 121.558C254.644 121.624 254.676 121.703 254.676 121.796V122.664C254.676 122.758 254.644 122.837 254.578 122.902C254.513 122.968 254.434 123 254.34 123H253.206ZM259.138 123.14C258.391 123.14 257.761 123.01 257.248 122.748C256.744 122.487 256.357 122.118 256.086 121.642C255.825 121.166 255.675 120.611 255.638 119.976C255.629 119.808 255.624 119.603 255.624 119.36C255.624 119.118 255.629 118.912 255.638 118.744C255.675 118.1 255.829 117.545 256.1 117.078C256.38 116.602 256.772 116.234 257.276 115.972C257.789 115.711 258.41 115.58 259.138 115.58C259.866 115.58 260.482 115.711 260.986 115.972C261.499 116.234 261.891 116.602 262.162 117.078C262.442 117.545 262.601 118.1 262.638 118.744C262.647 118.912 262.652 119.118 262.652 119.36C262.652 119.603 262.647 119.808 262.638 119.976C262.601 120.611 262.447 121.166 262.176 121.642C261.915 122.118 261.527 122.487 261.014 122.748C260.51 123.01 259.885 123.14 259.138 123.14ZM259.138 121.754C259.633 121.754 260.015 121.6 260.286 121.292C260.557 120.975 260.706 120.513 260.734 119.906C260.743 119.766 260.748 119.584 260.748 119.36C260.748 119.136 260.743 118.954 260.734 118.814C260.706 118.217 260.557 117.76 260.286 117.442C260.015 117.125 259.633 116.966 259.138 116.966C258.643 116.966 258.261 117.125 257.99 117.442C257.719 117.76 257.57 118.217 257.542 118.814C257.533 118.954 257.528 119.136 257.528 119.36C257.528 119.584 257.533 119.766 257.542 119.906C257.57 120.513 257.719 120.975 257.99 121.292C258.261 121.6 258.643 121.754 259.138 121.754Z" fill="white"/>
<path d="M373.88 124.15V122.08" stroke="white" stroke-width="1.5" stroke-linecap="round"/>
<path d="M379 124.15V120.01" stroke="white" stroke-width="1.5" stroke-linecap="round"/>
<path d="M384.12 124.15V117.93" stroke="white" stroke-width="1.5" stroke-linecap="round"/>
<path d="M384.12 111.85L383.66 112.39C381.11 115.37 377.69 117.48 373.88 118.43" stroke="white" stroke-width="1.5" stroke-linecap="round"/>
<path d="M381.19 111.85H384.12V114.77" stroke="white" stroke-width="1.5" stroke-linecap="round" stroke-linejoin="round"/>
<path d="M376 128H382C387 128 389 126 389 121V115C389 110 387 108 382 108H376C371 108 369 110 369 115V121C369 126 371 128 376 128Z" stroke="white" stroke-width="1.5" stroke-linecap="round" stroke-linejoin="round"/>
<path d="M412 128H418C423 128 425 126 425 121V115C425 110 423 108 418 108H412C407 108 405 110 405 115V121C405 126 407 128 412 128Z" stroke="white" stroke-width="1.5" stroke-linecap="round" stroke-linejoin="round"/>
<path d="M418.57 124.5V120.6" stroke="white" stroke-width="1.5" stroke-miterlimit="10" stroke-linecap="round" stroke-linejoin="round"/>
<path d="M418.57 113.45V111.5" stroke="white" stroke-width="1.5" stroke-miterlimit="10" stroke-linecap="round" stroke-linejoin="round"/>
<path d="M418.57 118.65C420.006 118.65 421.17 117.486 421.17 116.05C421.17 114.614 420.006 113.45 418.57 113.45C417.134 113.45 415.97 114.614 415.97 116.05C415.97 117.486 417.134 118.65 418.57 118.65Z" stroke="white" stroke-width="1.5" stroke-miterlimit="10" stroke-linecap="round" stroke-linejoin="round"/>
<path d="M411.43 124.5V122.55" stroke="white" stroke-width="1.5" stroke-miterlimit="10" stroke-linecap="round" stroke-linejoin="round"/>
<path d="M411.43 115.4V111.5" stroke="white" stroke-width="1.5" stroke-miterlimit="10" stroke-linecap="round" stroke-linejoin="round"/>
<path d="M411.43 122.55C412.866 122.55 414.03 121.386 414.03 119.95C414.03 118.514 412.866 117.35 411.43 117.35C409.994 117.35 408.83 118.514 408.83 119.95C408.83 121.386 409.994 122.55 411.43 122.55Z" stroke="white" stroke-width="1.5" stroke-miterlimit="10" stroke-linecap="round" stroke-linejoin="round"/>
<rect x="115" y="164" width="312" height="56" rx="8" fill="white" fill-opacity="0.08"/>
<path d="M139.592 197.14C138.929 197.14 138.365 197.042 137.898 196.846C137.431 196.65 137.049 196.379 136.75 196.034C136.451 195.689 136.227 195.292 136.078 194.844C135.929 194.387 135.84 193.901 135.812 193.388C135.803 193.136 135.793 192.861 135.784 192.562C135.784 192.254 135.784 191.946 135.784 191.638C135.793 191.33 135.803 191.045 135.812 190.784C135.831 190.271 135.919 189.79 136.078 189.342C136.237 188.885 136.465 188.488 136.764 188.152C137.072 187.816 137.459 187.55 137.926 187.354C138.393 187.158 138.948 187.06 139.592 187.06C140.245 187.06 140.805 187.158 141.272 187.354C141.739 187.55 142.121 187.816 142.42 188.152C142.728 188.488 142.957 188.885 143.106 189.342C143.265 189.79 143.353 190.271 143.372 190.784C143.391 191.045 143.4 191.33 143.4 191.638C143.4 191.946 143.4 192.254 143.4 192.562C143.4 192.861 143.391 193.136 143.372 193.388C143.353 193.901 143.269 194.387 143.12 194.844C142.971 195.292 142.747 195.689 142.448 196.034C142.149 196.379 141.762 196.65 141.286 196.846C140.819 197.042 140.255 197.14 139.592 197.14ZM139.592 195.53C140.199 195.53 140.642 195.334 140.922 194.942C141.211 194.541 141.361 193.999 141.37 193.318C141.389 193.047 141.398 192.777 141.398 192.506C141.398 192.226 141.398 191.946 141.398 191.666C141.398 191.386 141.389 191.12 141.37 190.868C141.361 190.205 141.211 189.673 140.922 189.272C140.642 188.861 140.199 188.656 139.592 188.656C138.995 188.656 138.551 188.861 138.262 189.272C137.982 189.673 137.833 190.205 137.814 190.868C137.814 191.12 137.809 191.386 137.8 191.666C137.8 191.946 137.8 192.226 137.8 192.506C137.809 192.777 137.814 193.047 137.814 193.318C137.833 193.999 137.987 194.541 138.276 194.942C138.565 195.334 139.004 195.53 139.592 195.53ZM145.227 197C145.133 197 145.054 196.967 144.989 196.902C144.923 196.837 144.891 196.757 144.891 196.664V195.278C144.891 195.175 144.923 195.091 144.989 195.026C145.054 194.961 145.133 194.928 145.227 194.928H146.627C146.72 194.928 146.799 194.961 146.865 195.026C146.93 195.091 146.963 195.175 146.963 195.278V196.664C146.963 196.757 146.93 196.837 146.865 196.902C146.799 196.967 146.72 197 146.627 197H145.227ZM148.763 197C148.67 197 148.59 196.967 148.525 196.902C148.46 196.837 148.427 196.757 148.427 196.664V195.95C148.427 195.866 148.446 195.768 148.483 195.656C148.53 195.535 148.628 195.413 148.777 195.292L150.989 193.094C151.605 192.609 152.1 192.198 152.473 191.862C152.856 191.517 153.131 191.204 153.299 190.924C153.476 190.635 153.565 190.35 153.565 190.07C153.565 189.65 153.448 189.309 153.215 189.048C152.991 188.787 152.632 188.656 152.137 188.656C151.81 188.656 151.535 188.726 151.311 188.866C151.087 188.997 150.91 189.174 150.779 189.398C150.658 189.622 150.574 189.869 150.527 190.14C150.508 190.261 150.457 190.345 150.373 190.392C150.289 190.439 150.205 190.462 150.121 190.462H148.875C148.791 190.462 148.721 190.434 148.665 190.378C148.609 190.322 148.581 190.257 148.581 190.182C148.59 189.781 148.674 189.393 148.833 189.02C148.992 188.637 149.22 188.301 149.519 188.012C149.827 187.713 150.2 187.475 150.639 187.298C151.078 187.121 151.572 187.032 152.123 187.032C152.898 187.032 153.537 187.163 154.041 187.424C154.554 187.685 154.937 188.04 155.189 188.488C155.45 188.936 155.581 189.44 155.581 190C155.581 190.439 155.497 190.845 155.329 191.218C155.161 191.582 154.918 191.937 154.601 192.282C154.284 192.618 153.901 192.963 153.453 193.318L151.465 195.334H155.455C155.558 195.334 155.637 195.367 155.693 195.432C155.758 195.488 155.791 195.567 155.791 195.67V196.664C155.791 196.757 155.758 196.837 155.693 196.902C155.637 196.967 155.558 197 155.455 197H148.763ZM160.931 197.14C160.128 197.14 159.438 196.991 158.859 196.692C158.28 196.384 157.832 195.973 157.515 195.46C157.198 194.937 157.039 194.354 157.039 193.71C157.039 193.421 157.076 193.141 157.151 192.87C157.226 192.599 157.324 192.343 157.445 192.1C157.566 191.857 157.683 191.643 157.795 191.456C157.916 191.26 158.024 191.106 158.117 190.994L160.679 187.48C160.716 187.433 160.772 187.377 160.847 187.312C160.922 187.237 161.024 187.2 161.155 187.2H162.457C162.541 187.2 162.611 187.233 162.667 187.298C162.723 187.354 162.751 187.424 162.751 187.508C162.751 187.545 162.742 187.583 162.723 187.62C162.714 187.648 162.7 187.671 162.681 187.69L160.721 190.406C160.805 190.378 160.903 190.359 161.015 190.35C161.127 190.341 161.23 190.336 161.323 190.336C161.79 190.345 162.233 190.439 162.653 190.616C163.073 190.784 163.442 191.017 163.759 191.316C164.076 191.615 164.324 191.965 164.501 192.366C164.688 192.767 164.781 193.206 164.781 193.682C164.781 194.298 164.627 194.872 164.319 195.404C164.011 195.927 163.568 196.347 162.989 196.664C162.42 196.981 161.734 197.14 160.931 197.14ZM160.917 195.53C161.253 195.53 161.561 195.46 161.841 195.32C162.13 195.18 162.364 194.975 162.541 194.704C162.718 194.433 162.807 194.097 162.807 193.696C162.807 193.304 162.718 192.973 162.541 192.702C162.364 192.431 162.13 192.226 161.841 192.086C161.561 191.946 161.253 191.876 160.917 191.876C160.581 191.876 160.268 191.946 159.979 192.086C159.699 192.226 159.47 192.431 159.293 192.702C159.116 192.973 159.027 193.304 159.027 193.696C159.027 194.097 159.116 194.433 159.293 194.704C159.47 194.975 159.699 195.18 159.979 195.32C160.268 195.46 160.581 195.53 160.917 195.53Z" fill="white"/>
<rect x="326" y="154" width="190.75" height="76" rx="38" fill="#51515D"/>
<path d="M416.101 201.25C415.921 201.25 415.768 201.196 415.642 201.088C415.534 200.962 415.48 200.809 415.48 200.629V184.753H410.296C410.116 184.753 409.963 184.699 409.837 184.591C409.729 184.465 409.675 184.312 409.675 184.132V182.998C409.675 182.8 409.729 182.647 409.837 182.539C409.963 182.413 410.116 182.35 410.296 182.35H423.31C423.508 182.35 423.661 182.413 423.769 182.539C423.895 182.647 423.958 182.8 423.958 182.998V184.132C423.958 184.312 423.895 184.465 423.769 184.591C423.661 184.699 423.508 184.753 423.31 184.753H418.153V200.629C418.153 200.809 418.09 200.962 417.964 201.088C417.856 201.196 417.703 201.25 417.505 201.25H416.101ZM433.447 201.52C431.863 201.52 430.513 201.223 429.397 200.629C428.299 200.035 427.453 199.198 426.859 198.118C426.283 197.038 425.959 195.769 425.887 194.311C425.869 193.519 425.86 192.682 425.86 191.8C425.86 190.9 425.869 190.045 425.887 189.235C425.959 187.777 426.283 186.517 426.859 185.455C427.453 184.393 428.308 183.565 429.424 182.971C430.54 182.377 431.881 182.08 433.447 182.08C434.725 182.08 435.832 182.26 436.768 182.62C437.704 182.98 438.469 183.439 439.063 183.997C439.675 184.537 440.125 185.104 440.413 185.698C440.719 186.292 440.881 186.814 440.899 187.264C440.917 187.426 440.872 187.561 440.764 187.669C440.656 187.759 440.512 187.804 440.332 187.804H438.739C438.559 187.804 438.424 187.768 438.334 187.696C438.262 187.624 438.19 187.498 438.118 187.318C437.956 186.85 437.686 186.391 437.308 185.941C436.948 185.491 436.453 185.122 435.823 184.834C435.211 184.528 434.419 184.375 433.447 184.375C432.025 184.375 430.873 184.762 429.991 185.536C429.127 186.31 428.659 187.588 428.587 189.37C428.533 190.972 428.533 192.574 428.587 194.176C428.659 195.976 429.136 197.272 430.018 198.064C430.9 198.838 432.052 199.225 433.474 199.225C434.428 199.225 435.274 199.054 436.012 198.712C436.768 198.352 437.362 197.803 437.794 197.065C438.226 196.327 438.442 195.391 438.442 194.257V193.123H434.392C434.212 193.123 434.059 193.069 433.933 192.961C433.825 192.835 433.771 192.673 433.771 192.475V191.611C433.771 191.413 433.825 191.26 433.933 191.152C434.059 191.026 434.212 190.963 434.392 190.963H440.494C440.692 190.963 440.845 191.026 440.953 191.152C441.061 191.26 441.115 191.413 441.115 191.611V194.203C441.115 195.679 440.809 196.966 440.197 198.064C439.603 199.162 438.73 200.017 437.578 200.629C436.426 201.223 435.049 201.52 433.447 201.52ZM451.042 201.52C449.476 201.52 448.162 201.286 447.1 200.818C446.038 200.332 445.219 199.711 444.643 198.955C444.085 198.181 443.788 197.362 443.752 196.498C443.752 196.354 443.806 196.228 443.914 196.12C444.04 195.994 444.184 195.931 444.346 195.931H445.723C445.939 195.931 446.101 195.985 446.209 196.093C446.317 196.201 446.389 196.327 446.425 196.471C446.515 196.903 446.731 197.335 447.073 197.767C447.433 198.181 447.928 198.532 448.558 198.82C449.206 199.09 450.034 199.225 451.042 199.225C452.59 199.225 453.724 198.955 454.444 198.415C455.182 197.857 455.551 197.119 455.551 196.201C455.551 195.571 455.353 195.067 454.957 194.689C454.579 194.293 453.994 193.942 453.202 193.636C452.41 193.33 451.384 192.997 450.124 192.637C448.81 192.259 447.721 191.845 446.857 191.395C445.993 190.945 445.345 190.387 444.913 189.721C444.499 189.055 444.292 188.209 444.292 187.183C444.292 186.211 444.553 185.347 445.075 184.591C445.597 183.817 446.344 183.205 447.316 182.755C448.306 182.305 449.503 182.08 450.907 182.08C452.023 182.08 452.995 182.233 453.823 182.539C454.669 182.827 455.371 183.223 455.929 183.727C456.487 184.213 456.91 184.744 457.198 185.32C457.486 185.878 457.639 186.427 457.657 186.967C457.657 187.093 457.612 187.219 457.522 187.345C457.432 187.453 457.288 187.507 457.09 187.507H455.659C455.533 187.507 455.398 187.471 455.254 187.399C455.128 187.327 455.029 187.192 454.957 186.994C454.849 186.256 454.435 185.635 453.715 185.131C452.995 184.627 452.059 184.375 450.907 184.375C449.737 184.375 448.783 184.6 448.045 185.05C447.325 185.5 446.965 186.202 446.965 187.156C446.965 187.768 447.136 188.281 447.478 188.695C447.82 189.091 448.36 189.442 449.098 189.748C449.836 190.054 450.799 190.378 451.987 190.72C453.427 191.116 454.606 191.539 455.524 191.989C456.442 192.421 457.117 192.97 457.549 193.636C457.999 194.284 458.224 195.121 458.224 196.147C458.224 197.281 457.927 198.253 457.333 199.063C456.739 199.855 455.902 200.467 454.822 200.899C453.76 201.313 452.5 201.52 451.042 201.52Z" fill="white"/>
<circle cx="364" cy="192" r="27" fill="white"/>
<g clip-path="url(#clip0_2311_11045)">
<path fill-rule="evenodd" clip-rule="evenodd" d="M350.5 178.5V200.691L364.004 210.9L377.5 200.691V178.5H363.996H350.5Z" fill="#EDB400"/>
<path fill-rule="evenodd" clip-rule="evenodd" d="M350.5 178.5V200.691L364.003 210.9L377.499 200.691V178.5H350.5ZM352.043 179.91C354.174 180.631 356.211 181.574 358.118 182.721C355.452 184.921 354.148 185.401 355.172 187.625C354.021 187.553 352.968 187.725 352.043 188.221V179.91ZM370.467 196.362C370.39 196.888 369.724 197.593 369.171 198.197C368.535 198.887 368.139 199.026 367.124 198.845C366.315 198.713 365.498 198.365 364.912 197.831C364.631 197.575 364.581 197.017 364.835 196.738C365.553 195.933 366.667 195.537 367.551 194.887C367.963 194.577 367.858 194.159 367.749 193.57C367.584 192.68 367.377 191.788 367.196 190.89C367.542 190.371 368.599 190.735 369.177 190.394C369.903 189.968 370.333 189.242 370.968 188.666C371.315 189.201 372.033 189.658 372.008 190.285C371.967 191.424 370.522 192.206 369.945 193.391C370.12 194.386 370.607 195.37 370.467 196.362ZM355.989 190.289C355.964 189.661 356.68 189.204 357.029 188.67C357.664 189.246 358.094 189.971 358.82 190.398C359.398 190.739 360.455 190.375 360.801 190.894C360.62 191.792 360.413 192.683 360.248 193.574C360.141 194.162 360.034 194.582 360.446 194.891C361.329 195.539 362.441 195.936 363.162 196.742C363.418 197.021 363.368 197.579 363.085 197.834C362.499 198.368 361.682 198.717 360.873 198.849C359.858 199.026 359.462 198.888 358.826 198.201C358.273 197.597 357.604 196.892 357.53 196.365C357.389 195.374 357.877 194.39 358.05 193.398C357.478 192.21 356.03 191.428 355.989 190.289ZM358.226 188.732C359.216 189.042 360.132 189.452 360.925 190.018C360.446 189.971 359.909 190.08 359.472 189.87C358.952 189.63 358.639 189.111 358.226 188.732ZM364.003 198.832C365.01 199.475 366.159 199.896 367.363 200.064C367.069 201.055 365.019 201.468 364 202.364C362.98 201.468 360.93 201.055 360.636 200.064C361.842 199.894 362.993 199.473 364.003 198.832ZM367.073 190.018C367.865 189.453 368.781 189.042 369.772 188.732C369.359 189.111 369.045 189.63 368.526 189.87C368.089 190.08 367.553 189.971 367.074 190.02L367.073 190.018ZM371.464 187.159C371.429 187.253 371.374 187.338 371.303 187.411C371.232 187.484 371.147 187.544 371.052 187.586C369.409 188.322 366.985 188.406 366.413 190.041C366.057 191.04 366.685 192.132 366.842 193.17C366.908 193.635 366.677 194.007 366.132 194.069C365.587 194.13 365.025 193.945 363.994 193.945C362.963 193.945 362.401 194.138 361.864 194.069C361.328 193.999 361.089 193.637 361.155 193.17C361.308 192.132 361.939 191.04 361.583 190.041C361.014 188.406 358.587 188.322 356.944 187.586C356.849 187.544 356.764 187.484 356.693 187.411C356.622 187.338 356.568 187.253 356.532 187.159C356.436 186.925 356.392 186.675 356.403 186.424C356.41 186.245 356.48 186.074 356.602 185.936C357.293 185.184 358.129 184.534 359.045 183.953C359.17 183.87 359.319 183.821 359.472 183.814C359.626 183.808 359.778 183.842 359.912 183.914C361.365 184.681 362.71 185.587 364.006 186.578C365.282 185.58 366.649 184.689 368.092 183.914C368.225 183.842 368.377 183.808 368.531 183.814C368.685 183.821 368.833 183.87 368.959 183.953C369.875 184.534 370.709 185.184 371.402 185.936C371.524 186.074 371.593 186.245 371.6 186.424C371.61 186.675 371.564 186.926 371.465 187.159H371.464ZM352.041 189.823C352.933 189.175 353.932 188.887 355.046 188.902C354.006 190.281 354.534 191.682 355.988 193.092C354.376 193.735 353.04 194.773 352.041 196.306V189.823ZM356.746 203.378L352.041 199.85C352.628 197.108 354.163 195.335 356.433 194.306C355.244 196.553 356.285 198.256 358.306 199.875C357.112 200.668 356.6 201.837 356.748 203.379L356.746 203.378ZM368.979 205.082L363.992 208.816L359.015 205.082C357.561 203.154 357.991 201.581 359.336 200.613C359.592 202.125 362.866 202.828 364 204.331C365.122 202.828 368.399 202.123 368.655 200.613C370.004 201.582 370.434 203.154 368.981 205.083L368.979 205.082ZM371.25 203.378C371.398 201.837 370.886 200.667 369.69 199.878C371.712 198.258 372.752 196.555 371.564 194.308C373.833 195.339 375.368 197.112 375.955 199.852L371.25 203.378ZM375.955 196.306C374.957 194.773 373.618 193.735 372.009 193.092C373.462 191.682 373.99 190.281 372.95 188.902C374.064 188.886 375.063 189.173 375.955 189.823V196.306ZM375.955 188.22C375.03 187.725 373.974 187.554 372.826 187.624C373.849 185.4 372.546 184.92 369.879 182.721C371.787 181.575 373.824 180.633 375.955 179.913V188.22ZM372.547 179.91C369.512 181.245 366.645 182.895 364 184.828C361.356 182.893 358.489 181.243 355.452 179.91H360.47C361.758 180.692 362.925 181.494 364 182.303C365.133 181.45 366.311 180.651 367.529 179.91H372.547ZM365.258 179.91C364.837 180.211 364.414 180.506 363.995 180.808C363.582 180.506 363.161 180.211 362.74 179.91H365.258Z" fill="#040416"/>
</g>
<path d="M494.5 189L487 196.5L479.5 189" stroke="white" stroke-width="3.375" stroke-linecap="round" stroke-linejoin="round"/>
<rect x="326" y="154" width="190.75" height="76" rx="38" stroke="white" stroke-width="4"/>
<circle cx="270" cy="244" r="9" stroke="white" stroke-width="2" stroke-linecap="round" stroke-linejoin="round"/>
<path d="M274.707 244.707C275.098 244.317 275.098 243.683 274.707 243.293C274.317 242.902 273.683 242.902 273.293 243.293L274.707 244.707ZM270 248L269.293 248.707C269.683 249.098 270.317 249.098 270.707 248.707L270 248ZM266.707 243.293C266.317 242.902 265.683 242.902 265.293 243.293C264.902 243.683 264.902 244.317 265.293 244.707L266.707 243.293ZM271 240C271 239.448 270.552 239 270 239C269.448 239 269 239.448 269 240H271ZM273.293 243.293L269.293 247.293L270.707 248.707L274.707 244.707L273.293 243.293ZM270.707 247.293L266.707 243.293L265.293 244.707L269.293 248.707L270.707 247.293ZM271 248V240H269V248H271Z" fill="white"/>
<rect x="115" y="268" width="312" height="56" rx="8" fill="white" fill-opacity="0.08"/>
<path d="M139.592 301.14C138.929 301.14 138.365 301.042 137.898 300.846C137.431 300.65 137.049 300.379 136.75 300.034C136.451 299.689 136.227 299.292 136.078 298.844C135.929 298.387 135.84 297.901 135.812 297.388C135.803 297.136 135.793 296.861 135.784 296.562C135.784 296.254 135.784 295.946 135.784 295.638C135.793 295.33 135.803 295.045 135.812 294.784C135.831 294.271 135.919 293.79 136.078 293.342C136.237 292.885 136.465 292.488 136.764 292.152C137.072 291.816 137.459 291.55 137.926 291.354C138.393 291.158 138.948 291.06 139.592 291.06C140.245 291.06 140.805 291.158 141.272 291.354C141.739 291.55 142.121 291.816 142.42 292.152C142.728 292.488 142.957 292.885 143.106 293.342C143.265 293.79 143.353 294.271 143.372 294.784C143.391 295.045 143.4 295.33 143.4 295.638C143.4 295.946 143.4 296.254 143.4 296.562C143.4 296.861 143.391 297.136 143.372 297.388C143.353 297.901 143.269 298.387 143.12 298.844C142.971 299.292 142.747 299.689 142.448 300.034C142.149 300.379 141.762 300.65 141.286 300.846C140.819 301.042 140.255 301.14 139.592 301.14ZM139.592 299.53C140.199 299.53 140.642 299.334 140.922 298.942C141.211 298.541 141.361 297.999 141.37 297.318C141.389 297.047 141.398 296.777 141.398 296.506C141.398 296.226 141.398 295.946 141.398 295.666C141.398 295.386 141.389 295.12 141.37 294.868C141.361 294.205 141.211 293.673 140.922 293.272C140.642 292.861 140.199 292.656 139.592 292.656C138.995 292.656 138.551 292.861 138.262 293.272C137.982 293.673 137.833 294.205 137.814 294.868C137.814 295.12 137.809 295.386 137.8 295.666C137.8 295.946 137.8 296.226 137.8 296.506C137.809 296.777 137.814 297.047 137.814 297.318C137.833 297.999 137.987 298.541 138.276 298.942C138.565 299.334 139.004 299.53 139.592 299.53ZM145.227 301C145.133 301 145.054 300.967 144.989 300.902C144.923 300.837 144.891 300.757 144.891 300.664V299.278C144.891 299.175 144.923 299.091 144.989 299.026C145.054 298.961 145.133 298.928 145.227 298.928H146.627C146.72 298.928 146.799 298.961 146.865 299.026C146.93 299.091 146.963 299.175 146.963 299.278V300.664C146.963 300.757 146.93 300.837 146.865 300.902C146.799 300.967 146.72 301 146.627 301H145.227ZM148.763 301C148.67 301 148.59 300.967 148.525 300.902C148.46 300.837 148.427 300.757 148.427 300.664V299.95C148.427 299.866 148.446 299.768 148.483 299.656C148.53 299.535 148.628 299.413 148.777 299.292L150.989 297.094C151.605 296.609 152.1 296.198 152.473 295.862C152.856 295.517 153.131 295.204 153.299 294.924C153.476 294.635 153.565 294.35 153.565 294.07C153.565 293.65 153.448 293.309 153.215 293.048C152.991 292.787 152.632 292.656 152.137 292.656C151.81 292.656 151.535 292.726 151.311 292.866C151.087 292.997 150.91 293.174 150.779 293.398C150.658 293.622 150.574 293.869 150.527 294.14C150.508 294.261 150.457 294.345 150.373 294.392C150.289 294.439 150.205 294.462 150.121 294.462H148.875C148.791 294.462 148.721 294.434 148.665 294.378C148.609 294.322 148.581 294.257 148.581 294.182C148.59 293.781 148.674 293.393 148.833 293.02C148.992 292.637 149.22 292.301 149.519 292.012C149.827 291.713 150.2 291.475 150.639 291.298C151.078 291.121 151.572 291.032 152.123 291.032C152.898 291.032 153.537 291.163 154.041 291.424C154.554 291.685 154.937 292.04 155.189 292.488C155.45 292.936 155.581 293.44 155.581 294C155.581 294.439 155.497 294.845 155.329 295.218C155.161 295.582 154.918 295.937 154.601 296.282C154.284 296.618 153.901 296.963 153.453 297.318L151.465 299.334H155.455C155.558 299.334 155.637 299.367 155.693 299.432C155.758 299.488 155.791 299.567 155.791 299.67V300.664C155.791 300.757 155.758 300.837 155.693 300.902C155.637 300.967 155.558 301 155.455 301H148.763ZM160.931 301.14C160.128 301.14 159.438 300.991 158.859 300.692C158.28 300.384 157.832 299.973 157.515 299.46C157.198 298.937 157.039 298.354 157.039 297.71C157.039 297.421 157.076 297.141 157.151 296.87C157.226 296.599 157.324 296.343 157.445 296.1C157.566 295.857 157.683 295.643 157.795 295.456C157.916 295.26 158.024 295.106 158.117 294.994L160.679 291.48C160.716 291.433 160.772 291.377 160.847 291.312C160.922 291.237 161.024 291.2 161.155 291.2H162.457C162.541 291.2 162.611 291.233 162.667 291.298C162.723 291.354 162.751 291.424 162.751 291.508C162.751 291.545 162.742 291.583 162.723 291.62C162.714 291.648 162.7 291.671 162.681 291.69L160.721 294.406C160.805 294.378 160.903 294.359 161.015 294.35C161.127 294.341 161.23 294.336 161.323 294.336C161.79 294.345 162.233 294.439 162.653 294.616C163.073 294.784 163.442 295.017 163.759 295.316C164.076 295.615 164.324 295.965 164.501 296.366C164.688 296.767 164.781 297.206 164.781 297.682C164.781 298.298 164.627 298.872 164.319 299.404C164.011 299.927 163.568 300.347 162.989 300.664C162.42 300.981 161.734 301.14 160.931 301.14ZM160.917 299.53C161.253 299.53 161.561 299.46 161.841 299.32C162.13 299.18 162.364 298.975 162.541 298.704C162.718 298.433 162.807 298.097 162.807 297.696C162.807 297.304 162.718 296.973 162.541 296.702C162.364 296.431 162.13 296.226 161.841 296.086C161.561 295.946 161.253 295.876 160.917 295.876C160.581 295.876 160.268 295.946 159.979 296.086C159.699 296.226 159.47 296.431 159.293 296.702C159.116 296.973 159.027 297.304 159.027 297.696C159.027 298.097 159.116 298.433 159.293 298.704C159.47 298.975 159.699 299.18 159.979 299.32C160.268 299.46 160.581 299.53 160.917 299.53Z" fill="white"/>
<rect x="326" y="257" width="200.562" height="78" rx="39" fill="#51515D"/>
<path d="M414.303 305.812C414.099 305.812 413.942 305.757 413.831 305.646C413.72 305.516 413.664 305.359 413.664 305.174V287.053C413.664 286.85 413.72 286.693 413.831 286.582C413.942 286.452 414.099 286.387 414.303 286.387H421.906C423.294 286.387 424.422 286.619 425.292 287.081C426.18 287.525 426.827 288.136 427.234 288.913C427.66 289.69 427.872 290.559 427.872 291.521C427.872 292.28 427.743 292.936 427.484 293.491C427.243 294.028 426.938 294.472 426.568 294.823C426.198 295.156 425.837 295.415 425.486 295.6C426.207 295.952 426.846 296.525 427.401 297.321C427.974 298.116 428.261 299.078 428.261 300.207C428.261 301.224 428.03 302.159 427.567 303.01C427.105 303.861 426.411 304.545 425.486 305.063C424.579 305.563 423.451 305.812 422.1 305.812H414.303ZM416.384 303.565H421.74C422.942 303.565 423.867 303.241 424.515 302.593C425.162 301.946 425.486 301.15 425.486 300.207C425.486 299.226 425.162 298.422 424.515 297.793C423.867 297.145 422.942 296.821 421.74 296.821H416.384V303.565ZM416.384 294.601H421.49C422.674 294.601 423.571 294.333 424.182 293.797C424.792 293.242 425.097 292.492 425.097 291.549C425.097 290.606 424.792 289.884 424.182 289.384C423.571 288.885 422.674 288.635 421.49 288.635H416.384V294.601ZM432.839 305.812C432.635 305.812 432.478 305.757 432.367 305.646C432.256 305.516 432.2 305.359 432.2 305.174V287.053C432.2 286.85 432.256 286.693 432.367 286.582C432.478 286.452 432.635 286.387 432.839 286.387H434.115C434.337 286.387 434.504 286.443 434.615 286.554C434.726 286.646 434.79 286.72 434.809 286.776L444.022 300.928V287.053C444.022 286.85 444.077 286.693 444.188 286.582C444.299 286.452 444.457 286.387 444.66 286.387H445.992C446.196 286.387 446.353 286.452 446.464 286.582C446.593 286.693 446.658 286.85 446.658 287.053V305.146C446.658 305.331 446.593 305.489 446.464 305.618C446.353 305.748 446.205 305.812 446.02 305.812H444.688C444.484 305.812 444.327 305.757 444.216 305.646C444.124 305.535 444.059 305.461 444.022 305.424L434.837 291.41V305.174C434.837 305.359 434.772 305.516 434.642 305.646C434.531 305.757 434.374 305.812 434.171 305.812H432.839ZM452.106 305.812C451.903 305.812 451.746 305.757 451.635 305.646C451.524 305.516 451.468 305.359 451.468 305.174V287.053C451.468 286.85 451.524 286.693 451.635 286.582C451.746 286.452 451.903 286.387 452.106 286.387H459.71C461.097 286.387 462.226 286.619 463.095 287.081C463.983 287.525 464.631 288.136 465.038 288.913C465.463 289.69 465.676 290.559 465.676 291.521C465.676 292.28 465.547 292.936 465.288 293.491C465.047 294.028 464.742 294.472 464.372 294.823C464.002 295.156 463.641 295.415 463.29 295.6C464.011 295.952 464.649 296.525 465.204 297.321C465.778 298.116 466.065 299.078 466.065 300.207C466.065 301.224 465.833 302.159 465.371 303.01C464.908 303.861 464.215 304.545 463.29 305.063C462.383 305.563 461.255 305.812 459.904 305.812H452.106ZM454.188 303.565H459.543C460.746 303.565 461.671 303.241 462.318 302.593C462.966 301.946 463.29 301.15 463.29 300.207C463.29 299.226 462.966 298.422 462.318 297.793C461.671 297.145 460.746 296.821 459.543 296.821H454.188V303.565ZM454.188 294.601H459.294C460.478 294.601 461.375 294.333 461.985 293.797C462.596 293.242 462.901 292.492 462.901 291.549C462.901 290.606 462.596 289.884 461.985 289.384C461.375 288.885 460.478 288.635 459.294 288.635H454.188V294.601Z" fill="white"/>
<g clip-path="url(#clip1_2311_11045)">
<path d="M365 323.75C349.673 323.75 337.25 311.327 337.25 296C337.25 280.673 349.673 268.25 365 268.25C380.327 268.25 392.75 280.673 392.75 296C392.75 311.327 380.327 323.75 365 323.75ZM358.264 293.232L365 286.496L371.74 293.235L375.659 289.316L365 278.656L354.344 289.312L358.264 293.232ZM347.656 296L351.576 299.92L355.496 296L351.576 292.08L347.656 296ZM358.264 298.768L354.339 302.683L354.344 302.688L365 313.344L375.659 302.684V302.683L371.74 298.763L365 305.504L358.264 298.768ZM374.504 296L378.424 299.92L382.344 296L378.424 292.08L374.504 296ZM368.975 295.997H368.977L365 292.021L362.06 294.959L361.722 295.298L361.027 295.995L361.02 296L361.027 296.005L364.998 299.979L368.977 296.002L368.979 296L368.975 295.998V295.997Z" fill="#EDB400"/>
</g>
<path d="M503.708 292.916L496 300.625L488.292 292.916" stroke="white" stroke-width="3.46875" stroke-linecap="round" stroke-linejoin="round"/>
<rect x="326" y="257" width="200.562" height="78" rx="39" stroke="white" stroke-width="4"/>
<g filter="url(#filter2_d_2311_11045)">
<circle cx="79" cy="347" r="40" fill="#3955E6"/>
</g>
<path d="M79.0005 370.415C79.0005 370.415 99.8135 363.015 99.8135 346.984V332.972L79.0005 323.585L58.1875 332.972V346.984C58.1875 363.015 79.0005 370.415 79.0005 370.415Z" fill="white"/>
<path d="M74.229 344.958C73.2928 344.001 71.7579 343.984 70.8008 344.92C69.8438 345.857 69.8269 347.391 70.7632 348.349L74.229 344.958ZM77.9256 352.203L76.1926 353.899C76.6487 354.365 77.2734 354.628 77.9256 354.628C78.5778 354.628 79.2024 354.365 79.6585 353.899L77.9256 352.203ZM89.8388 343.492C90.775 342.535 90.7582 341 89.8011 340.064C88.844 339.128 87.3092 339.145 86.3729 340.102L89.8388 343.492ZM70.7632 348.349L76.1926 353.899L79.6585 350.508L74.229 344.958L70.7632 348.349ZM79.6585 353.899L89.8388 343.492L86.3729 340.102L76.1926 350.508L79.6585 353.899Z" fill="#3955E6"/>
<g filter="url(#filter3_d_2311_11045)">
<circle cx="274" cy="61" r="33" fill="#C625E9"/>
</g>
<path d="M261.813 75.3411L260.514 76.8614C260.536 76.881 260.56 76.9001 260.584 76.9187L261.813 75.3411ZM262.299 78.2556C263.171 78.9345 264.427 78.7786 265.106 77.9073C265.785 77.036 265.629 75.7793 264.758 75.1004L262.299 78.2556ZM272.083 44.1948C273.181 44.0727 273.972 43.0837 273.85 41.9859C273.728 40.8881 272.739 40.0972 271.641 40.2193L272.083 44.1948ZM275.808 77.7193C274.71 77.8414 273.919 78.8303 274.041 79.9281C274.163 81.0259 275.152 81.8169 276.25 81.6948L275.808 77.7193ZM285.479 43.6098C284.563 42.9928 283.32 43.2353 282.703 44.1514C282.086 45.0676 282.329 46.3105 283.245 46.9275L285.479 43.6098ZM263.112 73.8207C259.491 70.7257 257.195 66.1137 257.195 60.957L253.195 60.957C253.195 67.3277 256.037 73.0357 260.514 76.8614L263.112 73.8207ZM260.584 76.9187L262.299 78.2556L264.758 75.1004L263.042 73.7635L260.584 76.9187ZM257.195 60.957C257.195 52.2672 263.719 45.125 272.083 44.1948L271.641 40.2193C261.255 41.3745 253.195 50.226 253.195 60.957L257.195 60.957ZM290.695 60.957C290.695 69.6468 284.171 76.789 275.808 77.7193L276.25 81.6948C286.636 80.5396 294.695 71.6881 294.695 60.957L290.695 60.957ZM283.245 46.9275C287.738 49.954 290.695 55.1061 290.695 60.957L294.695 60.957C294.695 53.7264 291.035 47.3518 285.479 43.6098L283.245 46.9275Z" fill="white"/>
<path d="M257.278 79.8222L266.653 79.8222L266.653 70.4472" stroke="white" stroke-width="4" stroke-linecap="round" stroke-linejoin="round"/>
<path d="M290.611 42.2075L281.236 42.2075L281.236 51.5825" stroke="white" stroke-width="4" stroke-linecap="round" stroke-linejoin="round"/>
<path d="M536.641 261.335C536.668 261.61 536.912 261.811 537.187 261.784L541.666 261.347C541.941 261.32 542.142 261.076 542.115 260.801C542.088 260.526 541.844 260.325 541.569 260.352L537.588 260.74L537.2 256.759C537.173 256.484 536.928 256.283 536.653 256.31C536.378 256.337 536.177 256.581 536.204 256.856L536.641 261.335ZM557.393 152.781L556.905 152.89L557.393 152.781ZM537.139 261.286C537.525 261.604 537.525 261.603 537.526 261.603C537.526 261.602 537.526 261.602 537.527 261.601C537.528 261.599 537.53 261.597 537.532 261.594C537.537 261.589 537.544 261.581 537.553 261.57C537.57 261.548 537.596 261.516 537.629 261.474C537.697 261.389 537.795 261.264 537.923 261.098C538.179 260.767 538.55 260.274 539.016 259.624C539.949 258.325 541.263 256.397 542.792 253.879C545.851 248.843 549.772 241.442 553.233 231.972C560.156 213.028 565.236 185.804 557.881 152.673L556.905 152.89C564.211 185.802 559.164 212.83 552.294 231.628C548.859 241.029 544.968 248.371 541.938 253.36C540.423 255.855 539.123 257.761 538.204 259.041C537.745 259.681 537.38 260.165 537.131 260.488C537.007 260.649 536.911 260.77 536.847 260.851C536.815 260.891 536.791 260.921 536.775 260.941C536.767 260.95 536.761 260.958 536.758 260.962C536.756 260.965 536.754 260.966 536.753 260.967C536.753 260.968 536.753 260.968 536.753 260.968C536.752 260.969 536.752 260.969 537.139 261.286ZM557.881 152.673C555.94 143.929 553.26 137.113 550.111 132.173C546.964 127.235 543.327 124.14 539.466 122.904C531.677 120.413 523.407 125.566 516.938 137.146L517.811 137.633C524.22 126.16 532.094 121.596 539.162 123.857C542.729 124.998 546.199 127.896 549.268 132.711C552.335 137.524 554.98 144.22 556.905 152.89L557.881 152.673Z" fill="white" fill-opacity="0.64"/>
<path d="M528.148 189.355C527.952 189.161 527.95 188.845 528.145 188.648L531.309 185.449C531.503 185.253 531.82 185.251 532.016 185.445C532.212 185.639 532.214 185.956 532.02 186.152L529.207 188.996L532.051 191.809C532.247 192.003 532.249 192.32 532.055 192.516C531.861 192.712 531.544 192.714 531.348 192.52L528.148 189.355ZM575.8 244.054L575.312 244.162L575.8 244.054ZM528.5 189C528.497 188.5 528.497 188.5 528.497 188.5C528.497 188.5 528.497 188.5 528.497 188.5C528.497 188.5 528.498 188.5 528.498 188.5C528.498 188.5 528.498 188.5 528.498 188.5C528.499 188.5 528.499 188.5 528.5 188.5C528.501 188.5 528.502 188.5 528.504 188.5C528.507 188.5 528.512 188.5 528.519 188.5C528.531 188.5 528.55 188.5 528.573 188.501C528.62 188.501 528.688 188.503 528.777 188.506C528.954 188.512 529.214 188.525 529.547 188.553L529.466 189.549C529.148 189.523 528.904 189.511 528.741 189.505C528.66 189.502 528.598 189.501 528.558 189.5C528.538 189.5 528.524 189.5 528.514 189.5C528.51 189.5 528.506 189.5 528.504 189.5C528.503 189.5 528.503 189.5 528.503 189.5C528.502 189.5 528.502 189.5 528.502 189.5C528.502 189.5 528.502 189.5 528.503 189.5C528.503 189.5 528.503 189.5 528.503 189.5C528.503 189.5 528.503 189.5 528.503 189.5C528.503 189.5 528.503 189.5 528.5 189ZM531.616 188.807C532.221 188.904 532.903 189.032 533.652 189.2L533.433 190.175C532.705 190.012 532.043 189.888 531.457 189.794L531.616 188.807ZM535.678 189.715C536.303 189.892 536.96 190.096 537.643 190.329L537.32 191.276C536.654 191.048 536.014 190.85 535.405 190.677L535.678 189.715ZM539.584 191.046C540.203 191.293 540.839 191.563 541.489 191.859L541.075 192.769C540.439 192.48 539.818 192.216 539.214 191.975L539.584 191.046ZM543.352 192.761C543.949 193.068 544.555 193.396 545.17 193.748L544.672 194.616C544.071 194.272 543.478 193.95 542.895 193.651L543.352 192.761ZM546.94 194.817C547.508 195.178 548.083 195.559 548.661 195.962L548.089 196.782C547.523 196.388 546.961 196.014 546.404 195.661L546.94 194.817ZM550.333 197.182C550.871 197.593 551.413 198.023 551.955 198.474L551.316 199.243C550.784 198.801 550.254 198.38 549.726 197.977L550.333 197.182ZM553.516 199.824C554.016 200.274 554.517 200.742 555.017 201.229L554.32 201.946C553.829 201.468 553.337 201.009 552.847 200.567L553.516 199.824ZM556.47 202.697C556.939 203.19 557.408 203.699 557.875 204.227L557.127 204.89C556.668 204.372 556.207 203.871 555.746 203.387L556.47 202.697ZM559.208 205.785C559.638 206.305 560.067 206.842 560.493 207.395L559.701 208.005C559.282 207.461 558.86 206.934 558.437 206.421L559.208 205.785ZM561.736 209.063C562.128 209.607 562.517 210.165 562.903 210.737L562.074 211.296C561.694 210.732 561.31 210.183 560.925 209.648L561.736 209.063ZM564.033 212.468C564.395 213.039 564.753 213.624 565.108 214.224L564.248 214.734C563.898 214.143 563.544 213.565 563.188 213.002L564.033 212.468ZM566.131 216.004C566.462 216.599 566.79 217.206 567.115 217.827L566.228 218.29C565.908 217.677 565.584 217.078 565.258 216.491L566.131 216.004ZM568.038 219.649C568.339 220.262 568.637 220.887 568.931 221.524L568.023 221.943C567.733 221.313 567.438 220.696 567.141 220.09L568.038 219.649ZM569.764 223.383C570.036 224.009 570.304 224.647 570.569 225.296L569.643 225.674C569.381 225.032 569.116 224.401 568.847 223.782L569.764 223.383ZM571.319 227.19C571.563 227.826 571.804 228.472 572.041 229.129L571.1 229.468C570.866 228.818 570.627 228.178 570.386 227.549L571.319 227.19ZM572.716 231.059C572.934 231.7 573.148 232.352 573.359 233.013L572.406 233.317C572.197 232.661 571.985 232.016 571.769 231.38L572.716 231.059ZM573.966 234.982C574.159 235.626 574.348 236.28 574.534 236.942L573.571 237.212C573.387 236.555 573.199 235.907 573.008 235.268L573.966 234.982ZM575.081 238.954C575.25 239.599 575.416 240.252 575.579 240.913L574.608 241.152C574.446 240.496 574.281 239.848 574.113 239.208L575.081 238.954ZM576.057 242.922C576.135 243.261 576.212 243.602 576.288 243.945L575.312 244.162C575.236 243.821 575.16 243.483 575.082 243.146L576.057 242.922ZM576.288 243.945C576.363 244.284 576.436 244.621 576.508 244.954L575.53 245.163C575.459 244.832 575.386 244.498 575.312 244.162L576.288 243.945ZM576.909 246.923C577.042 247.605 577.166 248.275 577.28 248.934L576.295 249.105C576.182 248.453 576.059 247.79 575.928 247.114L576.909 246.923ZM577.606 250.938C577.708 251.617 577.8 252.284 577.882 252.939L576.89 253.064C576.809 252.417 576.718 251.758 576.617 251.087L577.606 250.938ZM578.107 254.957C578.174 255.649 578.229 256.328 578.272 256.992L577.274 257.057C577.231 256.403 577.177 255.736 577.112 255.054L578.107 254.957ZM578.367 259.028C578.387 259.722 578.393 260.4 578.385 261.065L577.385 261.053C577.393 260.402 577.387 259.737 577.368 259.056L578.367 259.028ZM578.316 263.102C578.276 263.796 578.22 264.474 578.148 265.137L577.154 265.03C577.224 264.384 577.279 263.723 577.317 263.045L578.316 263.102ZM577.872 267.164C577.759 267.85 577.627 268.519 577.477 269.173L576.502 268.949C576.647 268.316 576.775 267.667 576.886 267L577.872 267.164ZM576.953 271.155C576.754 271.818 576.535 272.465 576.297 273.098L575.361 272.745C575.592 272.134 575.803 271.509 575.996 270.868L576.953 271.155ZM575.506 274.991C575.219 275.615 574.911 276.225 574.584 276.823L573.707 276.343C574.023 275.765 574.32 275.176 574.598 274.573L575.506 274.991ZM573.54 278.588C573.174 279.162 572.789 279.726 572.386 280.28L571.577 279.692C571.969 279.153 572.342 278.607 572.697 278.051L573.54 278.588ZM571.137 281.898C570.71 282.421 570.266 282.936 569.806 283.447L569.064 282.777C569.513 282.278 569.946 281.775 570.362 281.266L571.137 281.898ZM568.41 284.931C567.94 285.41 567.456 285.885 566.959 286.358L566.27 285.634C566.76 285.168 567.235 284.701 567.695 284.231L568.41 284.931ZM565.465 287.737C564.968 288.182 564.458 288.627 563.937 289.073L563.287 288.313C563.803 287.872 564.306 287.432 564.797 286.992L565.465 287.737ZM562.384 290.376C561.871 290.799 561.347 291.224 560.812 291.652L560.187 290.871C560.718 290.446 561.239 290.024 561.749 289.604L562.384 290.376ZM559.226 292.907C558.703 293.317 558.17 293.73 557.63 294.147L557.019 293.356C557.558 292.94 558.088 292.528 558.609 292.12L559.226 292.907ZM556.026 295.378C555.498 295.782 554.962 296.191 554.419 296.604L553.813 295.809C554.356 295.395 554.891 294.987 555.419 294.584L556.026 295.378ZM552.809 297.83C552.282 298.231 551.749 298.637 551.209 299.05L550.602 298.255C551.142 297.842 551.676 297.436 552.203 297.034L552.809 297.83ZM549.612 300.274C549.344 300.48 549.076 300.687 548.806 300.896L548.194 300.104C548.465 299.895 548.734 299.688 549.002 299.482L549.612 300.274Z" fill="white" fill-opacity="0.64"/>
<defs>
<filter id="filter0_b_2311_11045" x="-126.346" y="-148.625" width="783.053" height="809.753" filterUnits="userSpaceOnUse" color-interpolation-filters="sRGB">
<feFlood flood-opacity="0" result="BackgroundImageFix"/>
<feGaussianBlur in="BackgroundImage" stdDeviation="100"/>
<feComposite in2="SourceAlpha" operator="in" result="effect1_backgroundBlur_2311_11045"/>
<feBlend mode="normal" in="SourceGraphic" in2="effect1_backgroundBlur_2311_11045" result="shape"/>
</filter>
<filter id="filter1_b_2311_11045" x="-109" y="-136" width="760" height="790" filterUnits="userSpaceOnUse" color-interpolation-filters="sRGB">
<feFlood flood-opacity="0" result="BackgroundImageFix"/>
<feGaussianBlur in="BackgroundImage" stdDeviation="100"/>
<feComposite in2="SourceAlpha" operator="in" result="effect1_backgroundBlur_2311_11045"/>
<feBlend mode="normal" in="SourceGraphic" in2="effect1_backgroundBlur_2311_11045" result="shape"/>
</filter>
<filter id="filter2_d_2311_11045" x="0.21212" y="273.061" width="157.576" height="157.576" filterUnits="userSpaceOnUse" color-interpolation-filters="sRGB">
<feFlood flood-opacity="0" result="BackgroundImageFix"/>
<feColorMatrix in="SourceAlpha" type="matrix" values="0 0 0 0 0 0 0 0 0 0 0 0 0 0 0 0 0 0 127 0" result="hardAlpha"/>
<feOffset dy="4.84848"/>
<feGaussianBlur stdDeviation="19.3939"/>
<feComposite in2="hardAlpha" operator="out"/>
<feColorMatrix type="matrix" values="0 0 0 0 0.160784 0 0 0 0 0.321569 0 0 0 0 0.890196 0 0 0 0.72 0"/>
<feBlend mode="normal" in2="BackgroundImageFix" result="effect1_dropShadow_2311_11045"/>
<feBlend mode="normal" in="SourceGraphic" in2="effect1_dropShadow_2311_11045" result="shape"/>
</filter>
<filter id="filter3_d_2311_11045" x="209" y="0" width="130" height="130" filterUnits="userSpaceOnUse" color-interpolation-filters="sRGB">
<feFlood flood-opacity="0" result="BackgroundImageFix"/>
<feColorMatrix in="SourceAlpha" type="matrix" values="0 0 0 0 0 0 0 0 0 0 0 0 0 0 0 0 0 0 127 0" result="hardAlpha"/>
<feOffset dy="4"/>
<feGaussianBlur stdDeviation="16"/>
<feComposite in2="hardAlpha" operator="out"/>
<feColorMatrix type="matrix" values="0 0 0 0 0.776471 0 0 0 0 0.145098 0 0 0 0 0.913725 0 0 0 0.72 0"/>
<feBlend mode="normal" in2="BackgroundImageFix" result="effect1_dropShadow_2311_11045"/>
<feBlend mode="normal" in="SourceGraphic" in2="effect1_dropShadow_2311_11045" result="shape"/>
</filter>
<linearGradient id="paint0_linear_2311_11045" x1="286" y1="49" x2="398.104" y2="437.031" gradientUnits="userSpaceOnUse">
<stop stop-color="#686873"/>
<stop offset="1" stop-color="#686873" stop-opacity="0"/>
</linearGradient>
<clipPath id="clip0_2311_11045">
<rect width="27" height="32.4" fill="white" transform="translate(350.5 178.5)"/>
</clipPath>
<clipPath id="clip1_2311_11045">
<rect width="55.5" height="55.5" fill="white" transform="translate(337.25 268.25)"/>
</clipPath>
</defs>
</svg>
