<svg width="32" height="40" viewBox="0 0 32 40" fill="none" xmlns="http://www.w3.org/2000/svg">
<g clip-path="url(#clip0_2636_8041)">
<path fill-rule="evenodd" clip-rule="evenodd" d="M0 0V27.3964L16.005 40L32 27.3964V0H15.995H0Z" fill="#EDB400"/>
<path fill-rule="evenodd" clip-rule="evenodd" d="M0 0V27.3964L16.0041 40L31.9991 27.3964V0H0ZM1.82875 1.74044C4.35384 2.63133 6.76901 3.79561 9.02918 5.21156C5.86911 7.92711 4.32408 8.52 5.53718 11.2649C4.17312 11.176 2.92455 11.3893 1.82875 12.0009V1.74044ZM23.6647 22.0516C23.5737 22.7013 22.7844 23.5716 22.1287 24.3173C21.3749 25.1689 20.9056 25.3404 19.7025 25.1173C18.744 24.9547 17.7756 24.5244 17.0808 23.8649C16.748 23.5493 16.6888 22.8604 16.9899 22.5164C17.841 21.5218 19.1614 21.0338 20.2081 20.2311C20.6974 19.848 20.5719 19.3316 20.4427 18.6053C20.2472 17.5058 20.0026 16.4053 19.788 15.2969C20.1981 14.656 21.4503 15.1049 22.136 14.6844C22.9963 14.1582 23.5055 13.2622 24.2585 12.5511C24.6695 13.2107 25.5207 13.7751 25.4907 14.5493C25.4425 15.9556 23.7301 16.9209 23.0454 18.384C23.2536 19.6124 23.8311 20.8276 23.6647 22.0516ZM6.50567 14.5538C6.47566 13.7796 7.3241 13.2151 7.73787 12.5556C8.49083 13.2667 9.00008 14.1618 9.86035 14.6889C10.546 15.1093 11.7982 14.6604 12.2084 15.3013C11.9937 16.4098 11.7491 17.5102 11.5536 18.6098C11.4263 19.336 11.299 19.8542 11.7882 20.2356C12.8349 21.0356 14.1526 21.5262 15.0065 22.5209C15.3102 22.8649 15.2511 23.5538 14.9156 23.8693C14.2208 24.5289 13.2523 24.9591 12.2938 25.1218C11.0907 25.3413 10.6215 25.1698 9.86763 24.3218C9.21197 23.576 8.4199 22.7058 8.33169 22.056C8.16528 20.832 8.74273 19.6169 8.94825 18.3929C8.26986 16.9253 6.55387 15.96 6.50567 14.5538ZM9.1565 12.632C10.3305 13.0142 11.4163 13.5209 12.3557 14.2196C11.7882 14.1618 11.1517 14.296 10.6333 14.0373C10.0177 13.7413 9.64574 13.1004 9.1565 12.632ZM16.0041 25.1013C17.1976 25.8945 18.5588 26.4143 19.9862 26.6222C19.637 27.8462 17.2081 28.3556 15.9995 29.4622C14.791 28.3556 12.362 27.8462 12.0128 26.6222C13.4427 26.4128 14.8065 25.8931 16.0041 25.1013ZM19.6416 14.2196C20.581 13.5218 21.6668 13.0142 22.8408 12.632C22.3515 13.1004 21.9796 13.7413 21.3639 14.0373C20.8465 14.296 20.2109 14.1618 19.6434 14.2222L19.6416 14.2196ZM24.8459 10.6907C24.8042 10.8056 24.7395 10.9112 24.6557 11.0016C24.5718 11.0919 24.4705 11.1651 24.3576 11.2169C22.4106 12.1253 19.5379 12.2302 18.8595 14.248C18.4385 15.4818 19.1824 16.8302 19.3679 18.1111C19.4461 18.6853 19.1724 19.144 18.5267 19.2204C17.881 19.2969 17.2154 19.0676 15.9932 19.0676C14.771 19.0676 14.1044 19.3067 13.4688 19.2204C12.8331 19.1342 12.5494 18.6871 12.6276 18.1111C12.8095 16.8302 13.557 15.4818 13.1359 14.248C12.4612 12.2302 9.58481 12.1253 7.63784 11.2169C7.52491 11.1651 7.4236 11.0919 7.33978 11.0016C7.25596 10.9112 7.19129 10.8056 7.1495 10.6907C7.03483 10.4014 6.98281 10.0921 6.99673 9.78222C7.00496 9.56168 7.0878 9.35004 7.23226 9.18044C8.0507 8.25244 9.04191 7.44889 10.1277 6.73244C10.2761 6.62906 10.4518 6.56957 10.6338 6.56106C10.8159 6.55254 10.9966 6.59538 11.1544 6.68444C12.8767 7.63111 14.4709 8.74933 16.0068 9.97333C17.5197 8.74105 19.14 7.64056 20.8492 6.68444C21.0072 6.59541 21.1881 6.5526 21.3702 6.5611C21.5524 6.56961 21.7282 6.62908 21.8768 6.73244C22.9626 7.44889 23.9511 8.25244 24.7723 9.18044C24.9167 9.35004 24.9996 9.56168 25.0078 9.78222C25.0194 10.0926 24.9649 10.402 24.8478 10.6907H24.8459ZM1.82693 13.9796C2.88363 13.1796 4.06763 12.824 5.38805 12.8418C4.15584 14.544 4.78149 16.2747 6.50385 18.0151C4.59416 18.8089 3.01094 20.0898 1.82693 21.9831V13.9796ZM7.40322 30.7138L1.82693 26.3582C2.5217 22.9733 4.34136 20.784 7.03129 19.5138C5.62267 22.2871 6.85578 24.3902 9.25198 26.3893C7.83608 27.368 7.22953 28.8116 7.40504 30.7147L7.40322 30.7138ZM21.9014 32.8178L15.9904 37.4267L10.0913 32.8178C8.36898 30.4364 8.87823 28.4951 10.4724 27.3004C10.7761 29.1671 14.6555 30.0347 15.9995 31.8898C17.33 30.0347 21.2139 29.1644 21.5176 27.3004C23.1163 28.496 23.6256 30.4373 21.9032 32.8187L21.9014 32.8178ZM24.5922 30.7138C24.7677 28.8107 24.1612 27.3671 22.7435 26.392C25.1397 24.3929 26.3728 22.2898 24.9642 19.5164C27.6541 20.7884 29.4737 22.9778 30.1685 26.3609L24.5922 30.7138ZM30.1685 21.9831C28.9863 20.0898 27.3995 18.8089 25.4916 18.0151C27.214 16.2747 27.8396 14.544 26.6074 12.8418C27.9278 12.8222 29.1118 13.176 30.1685 13.9796V21.9831ZM30.1685 12C29.0727 11.3884 27.8205 11.1778 26.4601 11.264C27.6732 8.51911 26.1282 7.92622 22.9681 5.21067C25.2285 3.79627 27.6436 2.63348 30.1685 1.744V12ZM26.13 1.74044C22.5324 3.38949 19.1346 5.42611 15.9995 7.81244C12.8662 5.42375 9.46804 3.38696 5.86911 1.74044H11.8164C13.3423 2.70578 14.7264 3.696 15.9995 4.69511C17.3422 3.64213 18.7384 2.65599 20.1827 1.74044H26.13ZM17.4909 1.74044C16.9917 2.11289 16.4906 2.47644 15.9941 2.84978C15.5048 2.47644 15.0056 2.11289 14.5063 1.74044H17.4909Z" fill="#040416"/>
</g>
<defs>
<clipPath id="clip0_2636_8041">
<rect width="32" height="40" fill="white"/>
</clipPath>
</defs>
</svg>
