<?xml version="1.0" encoding="utf-8"?>
<!-- Generator: Adobe Illustrator 26.3.1, SVG Export Plug-In . SVG Version: 6.00 Build 0)  -->
<svg version="1.1" id="Layer_1" xmlns="http://www.w3.org/2000/svg" xmlns:xlink="http://www.w3.org/1999/xlink" x="0px" y="0px"
	 viewBox="0 0 144 40" width="144" height="40" style="enable-background:new 0 0 144 40;" xml:space="preserve">
<style type="text/css">
	.st0{clip-path:url(#SVGID_00000134929531013693495330000003801710766877590713_);}
	.st1{fill-rule:evenodd;clip-rule:evenodd;fill:#EDB400;}
	.st2{fill-rule:evenodd;clip-rule:evenodd;fill:#040416;}
	.st3{fill:#FFFFFF;}
</style>
<g>
	<defs>
		<rect id="SVGID_1_" x="2.3" y="2.9" width="26.9" height="34.2"/>
	</defs>
	<clipPath id="SVGID_00000040566224487387378310000000593798961425487291_">
		<use xlink:href="#SVGID_1_"  style="overflow:visible;"/>
	</clipPath>
	<g style="clip-path:url(#SVGID_00000040566224487387378310000000593798961425487291_);">
		<path class="st1" d="M2.3,2.9v23.5l13.5,10.8l13.5-10.8V2.9H15.7H2.3z"/>
		<path class="st2" d="M2.3,2.9v23.5l13.5,10.8l13.5-10.8V2.9H2.3z M3.8,4.4c2.1,0.8,4.2,1.8,6.1,3c-2.7,2.3-4,2.8-2.9,5.2
			c-1.1-0.1-2.2,0.1-3.1,0.6V4.4z M22.2,21.8c-0.1,0.6-0.7,1.3-1.3,1.9c-0.6,0.7-1,0.9-2,0.7c-0.8-0.1-1.6-0.5-2.2-1.1
			c-0.3-0.3-0.3-0.9-0.1-1.2c0.7-0.9,1.8-1.3,2.7-2c0.4-0.3,0.3-0.8,0.2-1.4c-0.2-0.9-0.4-1.9-0.6-2.8c0.3-0.5,1.4-0.2,2-0.5
			c0.7-0.5,1.2-1.2,1.8-1.8c0.3,0.6,1.1,1,1,1.7c0,1.2-1.5,2-2.1,3.3C21.8,19.7,22.3,20.7,22.2,21.8z M7.7,15.3c0-0.7,0.7-1.1,1-1.7
			c0.6,0.6,1.1,1.4,1.8,1.8c0.6,0.4,1.6,0,2,0.5c-0.2,0.9-0.4,1.9-0.6,2.8c-0.1,0.6-0.2,1.1,0.2,1.4c0.9,0.7,2,1.1,2.7,2
			c0.3,0.3,0.2,0.9-0.1,1.2c-0.6,0.6-1.4,0.9-2.2,1.1c-1,0.2-1.4,0-2-0.7c-0.6-0.6-1.2-1.4-1.3-1.9c-0.1-1,0.3-2.1,0.5-3.1
			C9.2,17.4,7.8,16.5,7.7,15.3z M10,13.7c1,0.3,1.9,0.8,2.7,1.4c-0.5,0-1,0.1-1.4-0.2C10.7,14.6,10.4,14.1,10,13.7z M15.7,24.4
			c1,0.7,2.2,1.1,3.4,1.3c-0.3,1-2.3,1.5-3.4,2.4c-1-0.9-3.1-1.4-3.4-2.4C13.6,25.5,14.7,25,15.7,24.4z M18.8,15.1
			c0.8-0.6,1.7-1,2.7-1.4c-0.4,0.4-0.7,0.9-1.2,1.2C19.8,15.1,19.3,15,18.8,15.1L18.8,15.1z M23.2,12c0,0.1-0.1,0.2-0.2,0.3
			c-0.1,0.1-0.2,0.1-0.3,0.2c-1.6,0.8-4.1,0.9-4.6,2.6c-0.4,1.1,0.3,2.2,0.4,3.3c0.1,0.5-0.2,0.9-0.7,0.9c-0.5,0.1-1.1-0.1-2.1-0.1
			c-1,0-1.6,0.2-2.1,0.1c-0.5-0.1-0.8-0.5-0.7-0.9c0.2-1.1,0.8-2.3,0.4-3.3c-0.6-1.7-3-1.8-4.6-2.6c-0.1,0-0.2-0.1-0.3-0.2
			c-0.1-0.1-0.1-0.2-0.2-0.3c-0.1-0.2-0.1-0.5-0.1-0.8c0-0.2,0.1-0.4,0.2-0.5C9,9.9,9.9,9.3,10.8,8.6c0.1-0.1,0.3-0.1,0.4-0.1
			c0.2,0,0.3,0,0.4,0.1c1.4,0.8,2.8,1.8,4.1,2.8c1.3-1.1,2.6-2,4.1-2.8c0.1-0.1,0.3-0.1,0.4-0.1c0.2,0,0.3,0.1,0.4,0.1
			c0.9,0.6,1.7,1.3,2.4,2.1c0.1,0.1,0.2,0.3,0.2,0.5C23.3,11.5,23.3,11.8,23.2,12L23.2,12z M3.8,14.8c0.9-0.7,1.9-1,3-1
			c-1,1.5-0.5,2.9,0.9,4.4c-1.6,0.7-2.9,1.8-3.9,3.4V14.8z M8.5,29.2l-4.7-3.7c0.6-2.9,2.1-4.8,4.4-5.9C7,22,8,23.8,10.1,25.5
			C8.9,26.3,8.3,27.5,8.5,29.2L8.5,29.2z M20.7,31l-5,3.9l-5-3.9c-1.4-2-1-3.7,0.3-4.7c0.3,1.6,3.5,2.3,4.7,3.9
			c1.1-1.6,4.4-2.3,4.6-3.9C21.7,27.3,22.1,28.9,20.7,31L20.7,31z M23,29.2c0.1-1.6-0.4-2.9-1.6-3.7c2-1.7,3.1-3.5,1.9-5.9
			c2.3,1.1,3.8,3,4.4,5.9L23,29.2z M27.7,21.7c-1-1.6-2.3-2.7-3.9-3.4c1.4-1.5,2-3,0.9-4.4c1.1,0,2.1,0.3,3,1V21.7z M27.7,13.2
			c-0.9-0.5-2-0.7-3.1-0.6c1-2.3-0.3-2.9-2.9-5.2c1.9-1.2,3.9-2.2,6.1-3V13.2z M24.3,4.4c-3,1.4-5.9,3.2-8.5,5.2
			c-2.6-2-5.5-3.8-8.5-5.2h5c1.3,0.8,2.4,1.7,3.5,2.5C16.9,6,18,5.2,19.3,4.4H24.3z M17,4.4c-0.4,0.3-0.8,0.6-1.3,0.9
			c-0.4-0.3-0.8-0.6-1.3-0.9H17z"/>
	</g>
</g>
<g>
	<path class="st3" d="M42.4,14.3h-3.5v-3h5.3L42.4,14.3z M43.6,28.7V14.4c0-1.7,1.5-3.1,3.3-3.1h5.2v3h-5v14.4H43.6z"/>
	<path class="st3" d="M57.8,25.7h9l1.7,3H57.6c-1.8,0-3.3-1.4-3.3-3.1V14.4c0-1.7,1.5-3.1,3.3-3.1h10.9l-1.6,3h-9v4.2h8.3v3h-8.3
		V25.7z"/>
	<path class="st3" d="M79.3,11.3c1.8,0,4.5,0.7,5.7,1.9l-3,2.3c-0.7-0.8-1.6-1.2-2.6-1.2h-2.3c-1.8,0-3.2,1.6-3.2,3.6v4.2
		c0,2,1.4,3.6,3.2,3.6h4.5V20H85v5.6c0,1.7-1.5,3.1-3.3,3.1H77c-3.7,0-6.7-2.9-6.7-6.6v-4.2c0-3.7,3-6.6,6.7-6.6H79.3z"/>
	<path class="st3" d="M91.8,11.3v17.4h-3.5V11.3H91.8z"/>
	<path class="st3" d="M101,11.3h2.3c1.8,0,4.3,0.7,5.4,1.9l-3,2.3c-0.6-0.7-1.5-1.2-2.4-1.2H101c-1.6,0-3,0.9-3,1.9
		c0,2.7,11,1.6,11,7.5c0,2.7-3,5-6.7,5H100c-1.8,0-4.5-0.7-5.7-1.9l3-2.3c0.7,0.8,1.6,1.2,2.6,1.2h2.3c1.8,0,3.2-0.9,3.2-1.9
		c0-3-11-1.6-11-7.5C94.5,13.5,97.4,11.3,101,11.3z"/>
	<path class="st3" d="M114.4,14.3h-3.5v-3h5.3L114.4,14.3z M115.6,28.7V14.4c0-1.7,1.5-3.1,3.3-3.1h5.2v3h-5v14.4H115.6z"/>
	<path class="st3" d="M132.5,28.9c-3.7,0-6.7-2.9-6.7-6.6c0,0,0,0,0,0v-4.6c0-3.7,3-6.6,6.7-6.6h2.3c3.7,0,6.7,2.9,6.7,6.6v4.6
		c0,3.7-3,6.7-6.7,6.6c0,0,0,0,0,0H132.5z M134.8,25.9c1.8,0,3.2-1.6,3.2-3.6v-4.7c0-2-1.4-3.6-3.2-3.6h-2.3c-1.8,0-3.2,1.6-3.2,3.6
		v4.6c0,2,1.4,3.6,3.2,3.6L134.8,25.9z"/>
</g>
</svg>
